<?xml version="1.0" encoding="utf-8"?>
<!-- Generator: Adobe Illustrator 19.0.1, SVG Export Plug-In . SVG Version: 6.00 Build 0)  -->
<svg version="1.1" id="Layer_1" xmlns="http://www.w3.org/2000/svg" xmlns:xlink="http://www.w3.org/1999/xlink" x="0px" y="0px"
	 viewBox="0 0 526.7 127.1" style="enable-background:new 0 0 526.7 127.1;" xml:space="preserve">
<style type="text/css">
	.st0{fill:#222222;}
</style>
<g>
	<path class="st0" d="M0.1,96.9V77.5h9.7V19.4H0.1V0h45.3l15.1,39.9L74.9,0h45.5v19.4h-9.8v58.1h9.8v19.4H75.8V77.5h10.2V23.9
		L66.2,76.5h-12L34.2,23.9v53.7h10.4v19.4H0.1z"/>
	<path class="st0" d="M167,88.7c-3.4,3.4-6.7,5.9-9.9,7.5c-3.2,1.6-6.4,2.4-9.6,2.4c-3.5,0-6.6-0.6-9.3-1.8
		c-2.7-1.2-4.8-2.9-6.5-5.1c-1-1.3-1.7-2.9-2.1-4.8c-0.4-1.9-0.6-4.9-0.6-8.9v-1.6v-24h-7.8V33H153v34.7c0,4.2,0.5,7,1.4,8.5
		c0.9,1.5,2.5,2.3,4.8,2.3c2.8,0,4.9-1,6-2.9c1.2-1.9,1.8-5.5,1.8-10.6V52.4h-6.7V33h30.8v44.5h7.8v19.4H167V88.7z"/>
	<path class="st0" d="M238.8,48.6v28.9h7.9v19.4h-39.7V77.5h7.8V52.4h-7.8V33h31.7v10.9"/>
	<path class="st0" d="M361.8,19.4h-7.8V0h31.7v77.5h6.9v19.4h-38.6V77.5h7.8V19.4z"/>
	<path class="st0" d="M461.2,96c0,6-0.3,10.4-0.8,13.2c-0.5,2.8-1.5,5.1-2.8,7.1c-1.8,2.7-4.7,4.8-8.7,6.4c-4,1.6-8.6,2.3-13.9,2.3
		c-1.1,0-2.2,0-3.3-0.1c-1.1-0.1-2.1-0.2-3.1-0.3v-22.1h1.4c2.8,0,4.8-0.6,5.7-1.7c1-1.1,1.4-4.3,1.4-9.6V52.4h-7.7V33h31.7V96z"/>
	<path class="st0" d="M486.9,96.9h-16.5V77.5h15.7c1.8,2.9,3.8,5,6,6.4c2.1,1.4,4.5,2.1,7.1,2.1c1.8,0,3.1-0.4,4.1-1.3
		c1-0.9,1.4-2.1,1.4-3.7c0-1.1-0.4-2-1.2-2.7c-0.8-0.7-2.3-1.4-4.4-2.1l-10.2-3.3c-7.4-2.3-12.6-5-15.5-8c-2.9-3-4.3-7.1-4.3-12.3
		c0-6.2,2.2-11.3,6.6-15.3c4.4-4,10-5.9,16.9-5.9c2.8,0,5.6,0.4,8.5,1.2c2.8,0.8,5.5,1.9,8.1,3.5V33h16.6v19.4h-15.3
		c-0.8-2.8-2.1-4.9-3.9-6.3c-1.8-1.4-4.1-2.1-6.8-2.1c-1.9,0-3.4,0.4-4.5,1.2c-1.1,0.8-1.6,1.9-1.6,3.3c0,1.3,0.5,2.4,1.6,3.3
		c1.1,0.9,3,1.8,5.9,2.7l7.2,2.3c8.5,2.8,14.1,5.6,16.7,8.5c2.6,2.9,3.9,7.1,3.9,12.4c0,6.4-2.1,11.5-6.3,15.3
		c-4.2,3.7-10,5.6-17.3,5.6c-2.7,0-5.4-0.4-8.2-1.1c-2.8-0.7-6.2-1.9-10.1-3.5V96.9z"/>
	<circle class="st0" cx="253.3" cy="46.7" r="13.7"/>
	<path class="st0" d="M346,51V30h-30v11.2c-3-4.1-4.7-5.7-7.9-7.3c-3.2-1.6-6.9-2.4-11.1-2.4c-8.9,0-16.2,3.1-21.8,9.3
		c-5.6,6.2-8.4,14.3-8.4,24.2c0,9.4,2.9,17.4,8.8,23.8c5.9,6.5,13.1,9.7,21.7,9.7c4.1,0,7.6-0.8,10.7-2.4c3.1-1.6,4.9-2.7,7.9-7.4
		V96h30V76h-6V51H346z M303.4,78.5c-7.6,0-13.7-6.2-13.7-13.7c0-7.6,6.2-13.7,13.7-13.7c7.6,0,13.7,6.2,13.7,13.7
		C317.2,72.4,311,78.5,303.4,78.5z"/>
	<circle class="st0" cx="414.3" cy="85.3" r="13.7"/>
	<circle class="st0" cx="448.4" cy="13.7" r="13.7"/>
</g>
</svg>
